<mxfile host="app.diagrams.net" modified="2024-05-24T13:09:00.587Z" agent="Mozilla/5.0 (Macintosh; Intel Mac OS X 10_15_7) AppleWebKit/537.36 (KHTML, like Gecko) Chrome/125.0.0.0 Safari/537.36 Edg/125.0.0.0" etag="c-CxEEL53Bup6q2vtNBO" version="24.4.8" type="device">
  <diagram name="Page-1" id="J7xd5RRbs9dGm1MDxF76">
    <mxGraphModel dx="1196" dy="1571" grid="0" gridSize="10" guides="1" tooltips="1" connect="1" arrows="1" fold="1" page="0" pageScale="1" pageWidth="850" pageHeight="1100" math="0" shadow="0">
      <root>
        <mxCell id="0" />
        <mxCell id="1" parent="0" />
        <mxCell id="cXKmblp1kb3mcMox8V4d-7" style="edgeStyle=none;curved=1;rounded=0;orthogonalLoop=1;jettySize=auto;html=1;fontSize=12;startSize=8;endSize=8;" edge="1" parent="1" source="cXKmblp1kb3mcMox8V4d-1">
          <mxGeometry relative="1" as="geometry">
            <mxPoint x="237" y="-11" as="targetPoint" />
          </mxGeometry>
        </mxCell>
        <mxCell id="cXKmblp1kb3mcMox8V4d-1" value="Mulai" style="rounded=1;whiteSpace=wrap;html=1;" vertex="1" parent="1">
          <mxGeometry x="177" y="-110" width="120" height="60" as="geometry" />
        </mxCell>
        <mxCell id="cXKmblp1kb3mcMox8V4d-2" value="Selesai" style="rounded=1;whiteSpace=wrap;html=1;" vertex="1" parent="1">
          <mxGeometry x="177" y="368" width="120" height="60" as="geometry" />
        </mxCell>
        <mxCell id="cXKmblp1kb3mcMox8V4d-18" style="edgeStyle=none;curved=1;rounded=0;orthogonalLoop=1;jettySize=auto;html=1;exitX=0.5;exitY=1;exitDx=0;exitDy=0;entryX=0.5;entryY=0;entryDx=0;entryDy=0;fontSize=12;startSize=8;endSize=8;" edge="1" parent="1" source="cXKmblp1kb3mcMox8V4d-11" target="cXKmblp1kb3mcMox8V4d-12">
          <mxGeometry relative="1" as="geometry" />
        </mxCell>
        <mxCell id="cXKmblp1kb3mcMox8V4d-11" value="Baca Nama dan Nilai" style="shape=parallelogram;perimeter=parallelogramPerimeter;whiteSpace=wrap;html=1;fixedSize=1;" vertex="1" parent="1">
          <mxGeometry x="156" y="-13" width="162" height="60" as="geometry" />
        </mxCell>
        <mxCell id="cXKmblp1kb3mcMox8V4d-20" style="edgeStyle=none;curved=1;rounded=0;orthogonalLoop=1;jettySize=auto;html=1;exitX=1;exitY=0.5;exitDx=0;exitDy=0;entryX=0.5;entryY=0;entryDx=0;entryDy=0;fontSize=12;startSize=8;endSize=8;" edge="1" parent="1" source="cXKmblp1kb3mcMox8V4d-12" target="cXKmblp1kb3mcMox8V4d-17">
          <mxGeometry relative="1" as="geometry">
            <Array as="points">
              <mxPoint x="434" y="145" />
            </Array>
          </mxGeometry>
        </mxCell>
        <mxCell id="cXKmblp1kb3mcMox8V4d-22" value="Tidak" style="edgeLabel;html=1;align=center;verticalAlign=middle;resizable=0;points=[];fontSize=12;" vertex="1" connectable="0" parent="cXKmblp1kb3mcMox8V4d-20">
          <mxGeometry x="0.0911" y="1" relative="1" as="geometry">
            <mxPoint as="offset" />
          </mxGeometry>
        </mxCell>
        <mxCell id="cXKmblp1kb3mcMox8V4d-12" value="nilai &amp;gt;= 60 ?" style="rhombus;whiteSpace=wrap;html=1;" vertex="1" parent="1">
          <mxGeometry x="145" y="88" width="184" height="80" as="geometry" />
        </mxCell>
        <mxCell id="cXKmblp1kb3mcMox8V4d-24" style="edgeStyle=none;curved=1;rounded=0;orthogonalLoop=1;jettySize=auto;html=1;exitX=0.5;exitY=1;exitDx=0;exitDy=0;entryX=0;entryY=0.5;entryDx=0;entryDy=0;fontSize=12;startSize=8;endSize=8;" edge="1" parent="1" source="cXKmblp1kb3mcMox8V4d-16" target="cXKmblp1kb3mcMox8V4d-2">
          <mxGeometry relative="1" as="geometry">
            <Array as="points">
              <mxPoint x="84" y="385" />
            </Array>
          </mxGeometry>
        </mxCell>
        <mxCell id="cXKmblp1kb3mcMox8V4d-16" value="Mahasiswa dinyatakan Lulus" style="shape=parallelogram;perimeter=parallelogramPerimeter;whiteSpace=wrap;html=1;fixedSize=1;" vertex="1" parent="1">
          <mxGeometry x="-19" y="209" width="193" height="60" as="geometry" />
        </mxCell>
        <mxCell id="cXKmblp1kb3mcMox8V4d-25" style="edgeStyle=none;curved=1;rounded=0;orthogonalLoop=1;jettySize=auto;html=1;exitX=0.5;exitY=1;exitDx=0;exitDy=0;entryX=1;entryY=0.5;entryDx=0;entryDy=0;fontSize=12;startSize=8;endSize=8;" edge="1" parent="1" source="cXKmblp1kb3mcMox8V4d-17" target="cXKmblp1kb3mcMox8V4d-2">
          <mxGeometry relative="1" as="geometry">
            <Array as="points">
              <mxPoint x="397" y="379" />
            </Array>
          </mxGeometry>
        </mxCell>
        <mxCell id="cXKmblp1kb3mcMox8V4d-17" value="Mahasiswa dinyatakan &quot;Tidak Lulus&quot;" style="shape=parallelogram;perimeter=parallelogramPerimeter;whiteSpace=wrap;html=1;fixedSize=1;" vertex="1" parent="1">
          <mxGeometry x="324" y="211" width="193" height="60" as="geometry" />
        </mxCell>
        <mxCell id="cXKmblp1kb3mcMox8V4d-19" style="edgeStyle=none;curved=1;rounded=0;orthogonalLoop=1;jettySize=auto;html=1;exitX=0;exitY=0.5;exitDx=0;exitDy=0;entryX=0.447;entryY=-0.002;entryDx=0;entryDy=0;entryPerimeter=0;fontSize=12;startSize=8;endSize=8;" edge="1" parent="1" source="cXKmblp1kb3mcMox8V4d-12" target="cXKmblp1kb3mcMox8V4d-16">
          <mxGeometry relative="1" as="geometry">
            <Array as="points">
              <mxPoint x="63" y="146" />
            </Array>
          </mxGeometry>
        </mxCell>
        <mxCell id="cXKmblp1kb3mcMox8V4d-21" value="Ya" style="edgeLabel;html=1;align=center;verticalAlign=middle;resizable=0;points=[];fontSize=12;" vertex="1" connectable="0" parent="cXKmblp1kb3mcMox8V4d-19">
          <mxGeometry x="-0.0486" y="1" relative="1" as="geometry">
            <mxPoint as="offset" />
          </mxGeometry>
        </mxCell>
      </root>
    </mxGraphModel>
  </diagram>
</mxfile>
